<svg id="svg" version="1.1" xmlns="http://www.w3.org/2000/svg" style="display: block;" viewBox="0 0 546 143"><path d="M0 0 C180.18 0 360.36 0 546 0 C546 47.19 546 94.38 546 143 C365.82 143 185.64 143 0 143 C0 95.81 0 48.62 0 0 Z " transform="translate(0,0)" style="fill: #000000;"/><path d="M0 0 C5.445 -0.0825 10.89 -0.165 16.5 -0.25 C18.20220703 -0.28641602 19.90441406 -0.32283203 21.65820312 -0.36035156 C36.94656621 -0.55982653 36.94656621 -0.55982653 42 4 C46.40767065 8.33356507 46.48628338 13.79834478 46.55249023 19.66259766 C46.54871521 20.95299811 46.53827082 22.24339462 46.52148438 23.53369141 C46.50003962 25.49637385 46.52134243 27.45539793 46.546875 29.41796875 C46.56162678 36.21708219 46.31049599 41.42926589 42 47 C38.76218975 49.94346387 35.81354605 51.12929078 31.4465332 51.11352539 C30.73630005 51.11340454 30.02606689 51.11328369 29.29431152 51.11315918 C28.55394653 51.10804321 27.81358154 51.10292725 27.05078125 51.09765625 C26.36576538 51.09664917 25.68074951 51.09564209 24.97497559 51.09460449 C22.42079998 51.08938007 19.86664828 51.07541879 17.3125 51.0625 C11.599375 51.041875 5.88625 51.02125 0 51 C0 34.17 0 17.34 0 0 Z " transform="translate(234,65)" style="fill: #00ACED;"/><path d="M0 0 C1.45700669 0.02009664 2.91404015 0.03834182 4.37109375 0.0546875 C7.9147319 0.09843231 11.45706614 0.16728064 15 0.25 C15 3.88 15 7.51 15 11.25 C14.09644775 11.27505615 13.19289551 11.3001123 12.26196289 11.32592773 C8.92033886 11.41986241 5.57892952 11.52011645 2.23754883 11.62231445 C0.7893576 11.6657163 -0.65888654 11.70738744 -2.10717773 11.74731445 C-4.18489559 11.80489062 -6.26234573 11.86862028 -8.33984375 11.93359375 C-9.31642189 11.95866249 -9.31642189 11.95866249 -10.31272888 11.98423767 C-13.43253399 11.84510506 -13.43253399 11.84510506 -16 13.25 C-16.33 15.56 -16.66 17.87 -17 20.25 C-6.44 20.25 4.12 20.25 15 20.25 C15 23.88 15 27.51 15 31.25 C4.44 31.25 -6.12 31.25 -17 31.25 C-16.8 37.65 -16.8 37.65 -15 39.25 C-12.77198175 39.40953711 -10.5711259 39.50912928 -8.33984375 39.56640625 C-7.67537735 39.58718735 -7.01091095 39.60796844 -6.3263092 39.62937927 C-4.19681457 39.69493658 -2.06719332 39.75378785 0.0625 39.8125 C1.50326847 39.85567939 2.94402399 39.89929349 4.38476562 39.94335938 C7.92304625 40.05062411 11.46145462 40.1518736 15 40.25 C15 43.88 15 47.51 15 51.25 C10.55260835 51.32449247 6.1055847 51.37876228 1.65771484 51.41479492 C0.14658273 51.42982543 -1.36450618 51.45025564 -2.87548828 51.47631836 C-5.05512187 51.51295689 -7.23417575 51.52978338 -9.4140625 51.54296875 C-10.41755234 51.56619453 -10.41755234 51.56619453 -11.4413147 51.58988953 C-16.1028163 51.59153939 -19.01044923 50.69705578 -23 48.25 C-28.7373974 42.04740822 -28.24745345 36.00067063 -28.29516602 28.01806641 C-28.30666142 26.6797425 -28.32707509 25.34146356 -28.35668945 24.00341797 C-28.66595409 10.01912749 -28.66595409 10.01912749 -25.34838867 5.5546875 C-18.21990515 -1.34276243 -9.24652358 -0.22240334 0 0 Z " transform="translate(314,64.75)" style="fill: #00ACED;"/><path d="M0 0 C0.70189453 0.01353516 1.40378906 0.02707031 2.12695312 0.04101562 C3.85579829 0.07629818 5.58424765 0.13010417 7.3125 0.1875 C3.30813817 6.31197757 -0.87862761 12.25799466 -5.25 18.125 C-6.48894239 19.79768759 -7.72720769 21.47087687 -8.96484375 23.14453125 C-9.58601074 23.9845166 -10.20717773 24.82450195 -10.84716797 25.68994141 C-13.69045273 29.54863113 -16.50558836 33.42729987 -19.3125 37.3125 C-19.7772876 37.95437256 -20.2420752 38.59624512 -20.72094727 39.25756836 C-22.38379272 41.56237175 -24.03648815 43.87420132 -25.6875 46.1875 C-26.09008026 46.74991394 -26.49266052 47.31232788 -26.90744019 47.89178467 C-34.88516701 59.05116198 -42.58032216 70.38457389 -50.17114258 81.81005859 C-52.01309403 84.5822066 -53.85881269 87.35181746 -55.70507812 90.12109375 C-61.45461191 98.75422383 -67.19227171 107.38951302 -72.6875 116.1875 C-74.6875 115.1875 -74.6875 115.1875 -75.68359375 112.421875 C-76.36937289 106.26704628 -72.52049541 100.7110564 -69.75 95.4375 C-69.1129351 94.19683402 -68.47630529 92.95594454 -67.84008789 91.71484375 C-51.77706615 60.66031598 -32.71336966 30.35413241 -10.6875 3.1875 C-10.25953125 2.58035156 -9.8315625 1.97320312 -9.390625 1.34765625 C-6.51819858 -0.60901955 -3.37722252 -0.12298009 0 0 Z " transform="translate(111.6875,-0.1875)" style="fill: #00ACED;"/><path d="M0 0 C-2.73382613 5.43887514 -5.92104025 10.40658191 -9.5 15.3125 C-23.55169249 34.64322258 -36.17895104 55.23793946 -48 76 C-48.66 75.67 -49.32 75.34 -50 75 C-52.67176503 66.42581528 -51.04575878 59.59767487 -47.0625 51.8125 C-45.12198982 48.16000637 -43.07628911 44.57678076 -41 41 C-40.35984769 39.88610091 -39.72005026 38.77199782 -39.08056641 37.65771484 C-34.81792772 30.24976028 -30.49983003 22.87383232 -25.99368286 15.61096191 C-25.31472784 14.51023781 -24.64288811 13.40510123 -23.9772644 12.29626465 C-22.96739124 10.61814883 -21.93409893 8.95671691 -20.89453125 7.296875 C-20.29487549 6.32073242 -19.69521973 5.34458984 -19.07739258 4.33886719 C-15.88177394 0.74102649 -12.47712783 0.38090127 -7.83203125 0.015625 C-2.15015723 -0.01572327 -2.15015723 -0.01572327 0 0 Z " transform="translate(93,1)" style="fill: #00ACED;"/><path d="M0 0 C-0.32049316 0.4947583 -0.64098633 0.9895166 -0.97119141 1.49926758 C-15.61530849 24.25799712 -27.48853938 48.08985852 -38 73 C-38.66 72.67 -39.32 72.34 -40 72 C-41.8755727 62.99725102 -41.37389772 55.44907786 -37.75 47 C-37.40155029 46.15985352 -37.05310059 45.31970703 -36.6940918 44.45410156 C-33.60008709 37.12854151 -30.23423938 29.92696916 -26.8125 22.75 C-26.56101196 22.22083984 -26.30952393 21.69167969 -26.05041504 21.14648438 C-17.90581213 4.08438456 -17.90581213 4.08438456 -13.02734375 1.30859375 C-12.00769531 1.02113281 -10.98804687 0.73367187 -9.9375 0.4375 C-8.91527344 0.12683594 -7.89304688 -0.18382812 -6.83984375 -0.50390625 C-4.01959007 -0.9965778 -2.67638728 -0.77979134 0 0 Z " transform="translate(67,7)" style="fill: #00ACED;"/><path d="M0 0 C3.403125 -0.04125 6.80625 -0.0825 10.3125 -0.125 C11.91605347 -0.15231201 11.91605347 -0.15231201 13.55200195 -0.18017578 C14.81983521 -0.18766846 14.81983521 -0.18766846 16.11328125 -0.1953125 C16.97735596 -0.20578613 17.84143066 -0.21625977 18.73168945 -0.22705078 C21.21774229 0.02179532 22.31211264 0.14555818 24 2 C24.37231445 4.49023438 24.37231445 4.49023438 24.36328125 7.59375 C24.36263672 8.70621094 24.36199219 9.81867188 24.36132812 10.96484375 C24.35302979 11.54476074 24.34473145 12.12467773 24.33618164 12.72216797 C24.3125849 14.49362658 24.31562037 16.26358042 24.32226562 18.03515625 C24.26683218 26.73316782 24.26683218 26.73316782 22 29 C19.75341797 29.22705078 19.75341797 29.22705078 16.9921875 29.1953125 C15.65969971 29.18781982 15.65969971 29.18781982 14.30029297 29.18017578 C13.16994629 29.16196777 12.03959961 29.14375977 10.875 29.125 C7.28625 29.08375 3.6975 29.0425 0 29 C0 19.43 0 9.86 0 0 Z " transform="translate(245,76)" style="fill: #000000;"/><path d="M0 0 C0.66 0 1.32 0 2 0 C4.6669585 7.01831185 3.80479753 11.41485477 0.8203125 18.1796875 C-0.07004227 20.08192914 -0.96872371 21.98029206 -1.875 23.875 C-2.32230469 24.84953125 -2.76960938 25.8240625 -3.23046875 26.828125 C-3.66746094 27.74851562 -4.10445312 28.66890625 -4.5546875 29.6171875 C-4.95155762 30.45878418 -5.34842773 31.30038086 -5.75732422 32.16748047 C-6.16740723 32.77221191 -6.57749023 33.37694336 -7 34 C-7.99 34 -8.98 34 -10 34 C-11.97934938 27.76715513 -9.52839145 22.88324368 -7.25 17 C-6.70859375 15.54207031 -6.70859375 15.54207031 -6.15625 14.0546875 C-2.41828145 4.11385811 -2.41828145 4.11385811 0 0 Z " transform="translate(34,80)" style="fill: #00ACED;"/><path d="M0 0 C2 1 2 1 3.1875 3.625 C4.67658053 9.81041145 2.69141413 15.56169062 0.78515625 21.46484375 C0.5693541 22.14301651 0.35355194 22.82118927 0.13121033 23.51991272 C-0.32230254 24.93844154 -0.77875534 26.35603356 -1.23803711 27.77270508 C-1.94236954 29.95257093 -2.63070919 32.13708788 -3.31835938 34.32226562 C-3.76206418 35.70343269 -4.20669198 37.08430366 -4.65234375 38.46484375 C-4.85762192 39.12097153 -5.06290009 39.7770993 -5.2743988 40.45310974 C-5.78119228 41.99296377 -6.38129711 43.50160193 -7 45 C-7.66 45 -8.32 45 -9 45 C-8.03771418 35.09509247 -6.11381526 25.44889411 -3.9375 15.75 C-3.80180603 15.14360687 -3.66611206 14.53721375 -3.52630615 13.91244507 C-1.23074009 3.69222028 -1.23074009 3.69222028 0 0 Z " transform="translate(19,85)" style="fill: #00ACED;"/><path d="M0 0 C0.66 0 1.32 0 2 0 C3.3062283 4.15075593 3.10485824 6.36491893 1.19921875 10.3046875 C0.37877655 11.83723653 -0.45904005 13.36058987 -1.3125 14.875 C-1.72951172 15.65875 -2.14652344 16.4425 -2.57617188 17.25 C-4.87287039 21.45511946 -4.87287039 21.45511946 -6 23 C-6.66 23 -7.32 23 -8 23 C-6.38998096 17.20131354 -4.53965327 11.5120634 -2.4375 5.875 C-2.12292847 5.00452026 -2.12292847 5.00452026 -1.80200195 4.11645508 C-1.26904003 2.7166147 -0.64258295 1.35302944 0 0 Z " transform="translate(32,117)" style="fill: #00ABEC;"/><path d="M0 0 C1.57421875 0.7265625 1.57421875 0.7265625 3 2 C2.70703125 4.0234375 2.70703125 4.0234375 1.8125 6.375 C1.38904297 7.53128906 1.38904297 7.53128906 0.95703125 8.7109375 C0.05785433 10.8616219 -0.92769754 12.93097587 -2 15 C-2.66 14.67 -3.32 14.34 -4 14 C-3.52372025 12.04096255 -3.04388577 10.08278903 -2.5625 8.125 C-2.29566406 7.03445312 -2.02882813 5.94390625 -1.75390625 4.8203125 C-1 2 -1 2 0 0 Z " transform="translate(20,119)" style="fill: #00ABEC;"/></svg>